<?xml version="1.0" encoding="UTF-8" standalone="no"?>
<!-- Created with Inkscape (http://www.inkscape.org/) -->

<svg
   xmlns:svg="http://www.w3.org/2000/svg"
   xmlns="http://www.w3.org/2000/svg"
   version="1.1"
   width="72"
   height="48"
   id="svg2">
  <defs
     id="defs4" />
  <g
     transform="translate(8e-8,-1028.3622)"
     id="layer1">
    <path
       d="M 24,12 A 12,12 0 1 1 0,12 12,12 0 1 1 24,12 z"
       transform="translate(0,1028.3622)"
       id="path3959"
       style="fill:#370000;fill-opacity:1;fill-rule:nonzero;stroke:none" />
    <path
       d="M 24,12 A 12,12 0 1 1 0,12 12,12 0 1 1 24,12 z"
       transform="matrix(0.83333334,0,0,0.83333334,2,1030.3622)"
       id="path3961"
       style="fill:#c50000;fill-opacity:1;fill-rule:nonzero;stroke:none" />
    <path
       d="M 12,4 C 10.538709,4 9.1789576,4.4094754 8,5.09375 L 8,8 5.09375,8 C 4.4094754,9.1789576 4,10.538709 4,12 c 0,1.461291 0.4094754,2.821042 1.09375,4 L 8,16 8,18.90625 C 9.1789576,19.590525 10.538709,20 12,20 c 1.461291,0 2.821042,-0.409475 4,-1.09375 L 16,16 18.90625,16 C 19.590525,14.821042 20,13.461291 20,12 20,10.538709 19.590525,9.1789576 18.90625,8 L 16,8 16,5.09375 C 14.821042,4.4094754 13.461291,4 12,4 z"
       transform="translate(0,1028.3622)"
       id="path3963"
       style="fill:#370000;fill-opacity:1;fill-rule:nonzero;stroke:none" />
    <path
       d="M 12,6 C 11.299289,6 10.625135,6.1229842 10,6.34375 L 10,10 6.34375,10 C 6.1229842,10.625135 6,11.299289 6,12 c 0,0.700711 0.1229842,1.374865 0.34375,2 L 10,14 10,17.65625 C 10.625135,17.877016 11.299289,18 12,18 c 0.700711,0 1.374865,-0.122984 2,-0.34375 L 14,14 17.65625,14 C 17.877016,13.374865 18,12.700711 18,12 18,11.299289 17.877016,10.625135 17.65625,10 L 14,10 14,6.34375 C 13.374865,6.1229842 12.700711,6 12,6 z"
       transform="translate(0,1028.3622)"
       id="path3969"
       style="fill:#ffffff;fill-opacity:1;fill-rule:nonzero;stroke:none" />
    <path
       d="M 24,12 A 12,12 0 1 1 0,12 12,12 0 1 1 24,12 z"
       transform="translate(24,1028.3622)"
       id="path3994"
       style="fill:#1e1d19;fill-opacity:1;fill-rule:nonzero;stroke:none" />
    <path
       d="M 24,12 A 12,12 0 1 1 0,12 12,12 0 1 1 24,12 z"
       transform="matrix(0.83333334,0,0,0.83333334,26,1030.3622)"
       id="path3996"
       style="fill:#6d6758;fill-opacity:1;fill-rule:nonzero;stroke:none" />
    <path
       d="m 41.656854,1034.7053 c -1.562081,-1.562 -4.411326,-1.2454 -6.363958,0.7072 l -7.004764,7.0047 c 0.349877,1.3175 1.021745,2.5686 2.055023,3.6019 1.033348,1.0332 2.284429,1.7051 3.601872,2.055 l 7.00478,-7.0049 c 1.952631,-1.9526 2.269199,-4.8018 0.707047,-6.3639 z"
       id="path3998"
       style="fill:#1e1d19;fill-opacity:1;fill-rule:nonzero;stroke:none" />
    <path
       d="m 38.605534,1035.7325 c -0.639806,0.1279 -1.317936,0.5159 -1.903711,1.1016 l -0.585414,0.5815 c 0.332454,0.5745 0.727724,1.1124 1.219922,1.6044 0.484571,0.4846 1.043969,0.877 1.608702,1.2067 l 0.585343,-0.5814 c 1.171621,-1.1716 1.482858,-2.7471 0.701817,-3.5281 -0.39052,-0.3905 -0.986852,-0.5127 -1.626659,-0.3847 z m -3.910153,3.0994 -4.124476,4.1047 c 0.285975,0.5981 0.701513,1.1751 1.196984,1.6706 0.495471,0.4954 1.037569,0.8855 1.635664,1.1715 l 4.120453,-4.1357 c -0.564738,-0.3297 -1.093213,-0.7261 -1.577784,-1.2107 -0.492529,-0.4925 -0.918058,-1.0255 -1.250839,-1.6004 z"
       id="path4000"
       style="fill:#ffffff;fill-opacity:1;fill-rule:nonzero;stroke:none" />
    <path
       d="M 24,12 A 12,12 0 1 1 0,12 12,12 0 1 1 24,12 z"
       transform="translate(24,1052.3622)"
       id="path4021"
       style="fill:#1a191e;fill-opacity:1;fill-rule:nonzero;stroke:none" />
    <path
       d="M 24,12 A 12,12 0 1 1 0,12 12,12 0 1 1 24,12 z"
       transform="matrix(0.83333334,0,0,0.83333334,26,1054.3622)"
       id="path4023"
       style="fill:#58606d;fill-opacity:1;fill-rule:nonzero;stroke:none" />
    <path
       d="m 43.778213,1060.8267 c -1.562082,-1.5621 -4.411326,-1.2455 -6.363958,0.7071 l -5.590561,5.5905 c 0.349878,1.3175 1.021746,2.5686 2.055024,3.6019 1.033348,1.0332 2.284429,1.7051 3.601872,2.055 l 5.590575,-5.5906 c 1.952631,-1.9526 2.269199,-4.8019 0.707048,-6.3639 z"
       id="path4047"
       style="fill:#1a191e;fill-opacity:1;fill-rule:nonzero;stroke:none" />
    <path
       d="m 39.535572,1056.584 c -1.562082,-1.562 -4.411326,-1.2454 -6.363958,0.7071 l -5.59056,5.5905 c 0.349878,1.3175 1.021746,2.5687 2.055023,3.6019 1.033348,1.0332 2.284429,1.7052 3.601872,2.055 l 5.590576,-5.5906 c 1.952631,-1.9526 2.269199,-4.8019 0.707047,-6.3639 z"
       id="path4043"
       style="fill:#1a191e;fill-opacity:1;fill-rule:nonzero;stroke:none" />
    <path
       d="m 36.484252,1057.6112 c -0.639869,0.1276 -1.317964,0.5158 -1.90374,1.1016 l -0.585343,0.5814 c 0.332397,0.5746 0.727682,1.1124 1.219851,1.6045 0.484588,0.4846 1.043972,0.8769 1.60873,1.2066 l 0.585343,-0.5813 c 1.171622,-1.1716 1.482831,-2.7471 0.70179,-3.5282 -0.390492,-0.3905 -0.986846,-0.5126 -1.626631,-0.3846 z m -3.910153,3.0994 -2.720862,2.6882 c 0.285975,0.5981 0.701583,1.175 1.197054,1.6705 0.495472,0.4955 1.037569,0.8856 1.635665,1.1715 l 2.716704,-2.7192 c -0.564758,-0.3297 -1.093154,-0.7262 -1.577757,-1.2106 -0.492528,-0.4926 -0.918058,-1.0256 -1.250838,-1.6005 z"
       id="path4045"
       style="fill:#ffffff;fill-opacity:1;fill-rule:nonzero;stroke:none" />
    <path
       d="m 40.726893,1061.8538 c -0.639869,0.1276 -1.317964,0.5159 -1.90374,1.1016 l -0.585343,0.5814 c 0.332397,0.5746 0.727681,1.1125 1.219851,1.6045 0.484587,0.4846 1.043972,0.877 1.60873,1.2067 l 0.585343,-0.5814 c 1.171622,-1.1716 1.482831,-2.7471 0.701789,-3.5281 -0.390492,-0.3905 -0.986845,-0.5127 -1.62663,-0.3847 z m -3.910153,3.0994 -2.720862,2.6882 c 0.285975,0.5981 0.701583,1.1751 1.197054,1.6706 0.495471,0.4954 1.037569,0.8855 1.635665,1.1715 l 2.716704,-2.7193 c -0.564758,-0.3297 -1.093155,-0.7261 -1.577757,-1.2106 -0.492529,-0.4925 -0.918058,-1.0255 -1.250838,-1.6004 z"
       id="path4049"
       style="fill:#ffffff;fill-opacity:1;fill-rule:nonzero;stroke:none" />
    <path
       d="m 40.242679,1060.1196 c -1.562082,-1.5621 -4.411326,-1.2455 -6.363958,0.7071 l -5.59056,5.5905 c 0.349877,1.3175 1.021745,2.5686 2.055023,3.6019 1.033348,1.0332 2.284429,1.7051 3.601872,2.055 l 5.590575,-5.5907 c 1.952631,-1.9525 2.269199,-4.8018 0.707048,-6.3638 z"
       id="path4025"
       style="fill:#1a191e;fill-opacity:1;fill-rule:nonzero;stroke:none" />
    <path
       d="m 37.191359,1061.1467 c -0.639869,0.1276 -1.317964,0.5158 -1.90374,1.1016 l -0.585343,0.5814 c 0.332397,0.5746 0.727681,1.1125 1.219851,1.6045 0.484587,0.4846 1.043972,0.877 1.60873,1.2067 l 0.585343,-0.5814 c 1.171622,-1.1716 1.482831,-2.7471 0.70179,-3.5281 -0.390492,-0.3905 -0.986846,-0.5127 -1.626631,-0.3847 z m -3.910153,3.0994 -2.720862,2.6882 c 0.285975,0.5981 0.701583,1.1751 1.197054,1.6706 0.495471,0.4954 1.037569,0.8855 1.635665,1.1715 l 2.716704,-2.7193 c -0.564758,-0.3297 -1.093155,-0.7261 -1.577757,-1.2106 -0.492529,-0.4925 -0.918058,-1.0255 -1.250838,-1.6004 z"
       id="path4027"
       style="fill:#ffffff;fill-opacity:1;fill-rule:nonzero;stroke:none" />
    <path
       d="M 24,12 A 12,12 0 1 1 0,12 12,12 0 1 1 24,12 z"
       transform="translate(-8e-8,1052.3622)"
       id="path4051"
       style="fill:#191e1a;fill-opacity:1;fill-rule:nonzero;stroke:none" />
    <path
       d="M 24,12 A 12,12 0 1 1 0,12 12,12 0 1 1 24,12 z"
       transform="matrix(0.83333334,0,0,0.83333334,1.9999999,1054.3622)"
       id="path4053"
       style="fill:#4c8f36;fill-opacity:1;fill-rule:nonzero;stroke:none" />
    <path
       d="M 16.03125,29.0625 12,31.375 8.03125,29.09375 C 5.6758455,30.485539 4.0625,33.054264 4.0625,36 c 0,0.01062 -4.11e-5,0.02064 0,0.03125 L 8,38.3125 8,42.875 C 9.1874938,43.582035 10.551179,44 12.03125,44 13.471198,44 14.834312,43.609405 16,42.9375 L 16,38.3125 20,36 c 0,-1.368191 -0.336165,-2.685812 -0.9375,-3.8125 l -0.09375,-0.125 C 18.861367,31.87026 18.747285,31.682009 18.625,31.5 17.950909,30.496679 17.075868,29.672166 16.03125,29.0625 z"
       transform="translate(0,1028.3622)"
       id="path4055"
       style="fill:#191e1a;fill-opacity:1;fill-rule:nonzero;stroke:none" />
    <path
       d="m 8.09375,31.4375 c -1.0161384,0.870764 -1.7430724,2.068973 -2,3.4375 L 10,37.125 10,41.65625 C 10.625135,41.877016 11.299289,42 12,42 c 0.700711,0 1.374865,-0.122984 2,-0.34375 l 0,-4.53125 3.90625,-2.25 c -0.256928,-1.368527 -0.983862,-2.566736 -2,-3.4375 L 12,33.6875 8.09375,31.4375 z"
       transform="translate(0,1028.3622)"
       id="rect4057"
       style="fill:#ffffff;fill-opacity:1;fill-rule:nonzero;stroke:none" />
    <path
       d="M 24,12 A 12,12 0 1 1 0,12 12,12 0 1 1 24,12 z"
       transform="translate(48,1028.3622)"
       id="path4081"
       style="fill:#1c191e;fill-opacity:1;fill-rule:nonzero;stroke:none" />
    <path
       d="M 24,12 A 12,12 0 1 1 0,12 12,12 0 1 1 24,12 z"
       transform="matrix(0.83333334,0,0,0.83333334,50,1030.3622)"
       id="path4083"
       style="fill:#6a1088;fill-opacity:1;fill-rule:nonzero;stroke:none" />
    <path
       d="m 60,1032.3622 c -3.774977,0 -6.939835,2.6079 -7.78125,6.125 l 7.78125,9.875 7.78125,-9.875 c -0.841415,-3.5171 -4.006273,-6.125 -7.78125,-6.125 z"
       id="path4139"
       style="fill:#1c191e;fill-opacity:1;fill-rule:nonzero;stroke:none" />
    <path
       d="m 60,1034.3622 c -2.738082,0 -5.03018,1.8371 -5.75,4.3438 l 5.75,7.6562 5.75,-7.6562 c -0.71982,-2.5067 -3.011918,-4.3438 -5.75,-4.3438 z"
       id="path4121"
       style="fill:#ffffff;fill-opacity:1;fill-rule:nonzero;stroke:none" />
    <path
       d="m 60,1036.3622 c -2.738082,0 -5.03018,1.8371 -5.75,4.3438 l 0.53125,0.7187 c 1.023711,-1.8296 2.971456,-3.0625 5.21875,-3.0625 2.247294,0 4.195039,1.2329 5.21875,3.0625 L 65.75,1040.706 c -0.71982,-2.5067 -3.011918,-4.3438 -5.75,-4.3438 z"
       id="path4126"
       style="fill:#1c191e;fill-opacity:1;fill-rule:nonzero;stroke:none" />
    <path
       d="m 60,1040.3622 c -1.858204,0 -3.498399,0.8602 -4.59375,2.1875 l 0.875,1.0938 c 1.018074,-0.8079 2.314191,-1.2813 3.71875,-1.2813 1.404559,0 2.700676,0.4734 3.71875,1.2813 l 0.875,-1.0938 c -1.095351,-1.3273 -2.735546,-2.1875 -4.59375,-2.1875 z"
       id="path4132"
       style="fill:#1c191e;fill-opacity:1;fill-rule:nonzero;stroke:none" />
    <path
       d="m 60,1044.3622 c -0.953738,0 -1.857641,0.228 -2.65625,0.625 l 1.25,1.5625 c 0.454399,-0.114 0.917461,-0.1875 1.40625,-0.1875 0.498349,0 0.975219,0.068 1.4375,0.1875 l 1.21875,-1.5312 c -0.799564,-0.4066 -1.696233,-0.6563 -2.65625,-0.6563 z"
       id="path4134"
       style="fill:#1c191e;fill-opacity:1;fill-rule:nonzero;stroke:none" />
    <path
       d="M 24,12 A 12,12 0 1 1 0,12 12,12 0 1 1 24,12 z"
       transform="translate(48,1052.3622)"
       id="path4148"
       style="fill:#191c1e;fill-opacity:1;fill-rule:nonzero;stroke:none" />
    <path
       d="M 24,12 A 12,12 0 1 1 0,12 12,12 0 1 1 24,12 z"
       transform="matrix(0.83333334,0,0,0.83333334,50,1054.3622)"
       id="path4150"
       style="fill:#106e88;fill-opacity:1;fill-rule:nonzero;stroke:none" />
    <path
       d="m 60,1056.3622 c -4.418278,0 -8,3.5817 -8,8 0,4.4183 3.581722,8 8,8 4.418278,0 8,-3.5817 8,-8 0,-4.4183 -3.581722,-8 -8,-8 z m 0,6 c 1.104569,0 2,0.8954 2,2 0,1.1046 -0.895431,2 -2,2 -1.104569,0 -2,-0.8954 -2,-2 0,-1.1046 0.895431,-2 2,-2 z"
       id="path4152"
       style="fill:#191c1e;fill-opacity:1;fill-rule:nonzero;stroke:none" />
    <path
       d="m 60,1058.3622 c -3.313708,0 -6,2.6863 -6,6 0,3.3137 2.686292,6 6,6 3.313708,0 6,-2.6863 6,-6 0,-3.3137 -2.686292,-6 -6,-6 z m 0,2 c 2.209139,0 4,1.7909 4,4 0,2.2091 -1.790861,4 -4,4 -2.209139,0 -4,-1.7909 -4,-4 0,-2.2091 1.790861,-4 4,-4 z"
       id="path4185"
       style="fill:#ffffff;fill-opacity:1;fill-rule:nonzero;stroke:none" />
  </g>
</svg>
